name ./resultDataOpenSim/trcMotMarkerGrf/sub10/grf-12-01.mot
datacolumns 19
datarows 30
range 0.92800000 1.04400000
endheader

                time	     ground_force_vx	     ground_force_vy	     ground_force_vz	     ground_force_px	     ground_force_py	     ground_force_pz	   l_ground_force_vx	   l_ground_force_vy	   l_ground_force_vz	   l_ground_force_px	   l_ground_force_py	   l_ground_force_pz	     ground_torque_x	     ground_torque_y	     ground_torque_z	   l_ground_torque_x	   l_ground_torque_y	   l_ground_torque_z	
          0.92800000	          0.00000000	          0.00000000	          0.00000000	          0.00000000	          0.00000000	          0.00000000	          1.44443297	        471.64892148	         29.03078156	         -0.11392100	         -0.02499791	         -0.17077043	          0.00000000	          0.00000000	          0.00000000	          0.00000000	         -4.26215720	          0.00000000	
          0.93200000	          0.00000000	          0.00000000	          0.00000000	          0.00000000	          0.00000000	          0.00000000	          2.83381975	        467.41199698	         28.55451273	         -0.11150088	         -0.02499800	         -0.17072525	          0.00000000	          0.00000000	          0.00000000	          0.00000000	         -4.27867182	          0.00000000	
          0.93600000	          0.00000000	          0.00000000	          0.00000000	          0.00000000	          0.00000000	          0.00000000	          4.18284262	        464.25478168	         28.12134329	         -0.10898235	         -0.02499800	         -0.17061076	          0.00000000	          0.00000000	          0.00000000	          0.00000000	         -4.28097667	          0.00000000	
          0.94000000	          0.00000000	          0.00000000	          0.00000000	          0.00000000	          0.00000000	          0.00000000	          5.51322841	        462.01709554	         27.72843082	         -0.10639671	         -0.02499800	         -0.17046714	          0.00000000	          0.00000000	          0.00000000	          0.00000000	         -4.26701047	          0.00000000	
          0.94400000	          0.00000000	          0.00000000	          0.00000000	          0.00000000	          0.00000000	          0.00000000	          6.82280436	        460.45229454	         27.38541130	         -0.10375660	         -0.02499800	         -0.17033302	          0.00000000	          0.00000000	          0.00000000	          0.00000000	         -4.23588866	          0.00000000	
          0.94800000	          0.00000000	          0.00000000	          0.00000000	          0.00000000	          0.00000000	          0.00000000	          8.07875591	        459.27536026	         27.10506482	         -0.10105285	         -0.02499800	         -0.17023879	          0.00000000	          0.00000000	          0.00000000	          0.00000000	         -4.18848650	          0.00000000	
          0.95200000	          0.00000000	          0.00000000	          0.00000000	          0.00000000	          0.00000000	          0.00000000	          9.22783859	        458.21435091	         26.89632032	         -0.09826515	         -0.02499848	         -0.17020484	          0.00000000	          0.00000000	          0.00000000	          0.00000000	         -4.12782650	          0.00000000	
          0.95600000	          0.00000000	          0.00000000	          0.00000000	          0.00000000	          0.00000000	          0.00000000	         10.21990647	        457.06048578	         26.75186602	         -0.09536176	         -0.02499900	         -0.17022969	          0.00000000	          0.00000000	          0.00000000	          0.00000000	         -4.05898367	          0.00000000	
          0.96000000	          0.00000000	          0.00000000	          0.00000000	          0.00000000	          0.00000000	          0.00000000	         11.03488979	        455.72488167	         26.63109931	         -0.09229871	         -0.02499900	         -0.17027625	          0.00000000	          0.00000000	          0.00000000	          0.00000000	         -3.98851939	          0.00000000	
          0.96400000	          0.00000000	          0.00000000	          0.00000000	          0.00000000	          0.00000000	          0.00000000	         11.70055126	        454.27191616	         26.46522746	         -0.08903535	         -0.02499900	         -0.17026939	          0.00000000	          0.00000000	          0.00000000	          0.00000000	         -3.92367427	          0.00000000	
          0.96800000	          0.00000000	          0.00000000	          0.00000000	          0.00000000	          0.00000000	          0.00000000	         12.28342574	        452.88777782	         26.19558854	         -0.08554975	         -0.02499900	         -0.17011901	          0.00000000	          0.00000000	          0.00000000	          0.00000000	         -3.87152140	          0.00000000	
          0.97200000	          0.00000000	          0.00000000	          0.00000000	          0.00000000	          0.00000000	          0.00000000	         12.85078091	        451.79734155	         25.80829991	         -0.08184880	         -0.02499900	         -0.16978195	          0.00000000	          0.00000000	          0.00000000	          0.00000000	         -3.83814263	          0.00000000	
          0.97600000	          0.00000000	          0.00000000	          0.00000000	          0.00000000	          0.00000000	          0.00000000	         13.44081131	        451.19487309	         25.33446575	         -0.07797871	         -0.02499900	         -0.16930329	          0.00000000	          0.00000000	          0.00000000	          0.00000000	         -3.82786214	          0.00000000	
          0.98000000	          0.00000000	          0.00000000	          0.00000000	          0.00000000	          0.00000000	          0.00000000	         14.07322871	        451.22650489	         24.83590230	         -0.07402337	         -0.02499900	         -0.16876642	          0.00000000	          0.00000000	          0.00000000	          0.00000000	         -3.84268795	          0.00000000	
          0.98400000	          0.00000000	          0.00000000	          0.00000000	          0.00000000	          0.00000000	          0.00000000	         14.76552852	        451.99595277	         24.39749389	         -0.07004833	         -0.02499900	         -0.16822314	          0.00000000	          0.00000000	          0.00000000	          0.00000000	         -3.88216552	          0.00000000	
          0.98800000	          0.00000000	          0.00000000	          0.00000000	          0.00000000	          0.00000000	          0.00000000	         15.52430098	        453.56010866	         24.11408720	         -0.06607140	         -0.02499900	         -0.16769323	          0.00000000	          0.00000000	          0.00000000	          0.00000000	         -3.94366772	          0.00000000	
          0.99200000	          0.00000000	          0.00000000	          0.00000000	          0.00000000	          0.00000000	          0.00000000	         16.35279422	        455.92567280	         24.06731979	         -0.06214073	         -0.02499900	         -0.16721297	          0.00000000	          0.00000000	          0.00000000	          0.00000000	         -4.02292283	          0.00000000	
          0.99600000	          0.00000000	          0.00000000	          0.00000000	          0.00000000	          0.00000000	          0.00000000	         17.27435722	        459.07279107	         24.31003694	         -0.05836080	         -0.02499900	         -0.16686871	          0.00000000	          0.00000000	          0.00000000	          0.00000000	         -4.11458306	          0.00000000	
          1.00000000	          0.00000000	          0.00000000	          0.00000000	          0.00000000	          0.00000000	          0.00000000	         18.31637741	        463.01099839	         24.86873872	         -0.05484546	         -0.02499900	         -0.16675034	          0.00000000	          0.00000000	          0.00000000	          0.00000000	         -4.21273993	          0.00000000	
          1.00400000	          0.00000000	          0.00000000	          0.00000000	          0.00000000	          0.00000000	          0.00000000	         19.48458269	        467.83731421	         25.75517901	         -0.05163789	         -0.02499900	         -0.16687143	          0.00000000	          0.00000000	          0.00000000	          0.00000000	         -4.31130102	          0.00000000	
          1.00800000	          0.00000000	          0.00000000	          0.00000000	          0.00000000	          0.00000000	          0.00000000	         20.77920417	        473.73023873	         26.97105066	         -0.04862417	         -0.02499900	         -0.16710870	          0.00000000	          0.00000000	          0.00000000	          0.00000000	         -4.40417067	          0.00000000	
          1.01200000	          0.00000000	          0.00000000	          0.00000000	          0.00000000	          0.00000000	          0.00000000	         22.21682620	        480.87110968	         28.50028067	         -0.04569216	         -0.02499988	         -0.16733192	          0.00000000	          0.00000000	          0.00000000	          0.00000000	         -4.48528013	          0.00000000	
          1.01600000	          0.00000000	          0.00000000	          0.00000000	          0.00000000	          0.00000000	          0.00000000	         23.83618495	        489.39458752	         30.30969927	         -0.04281037	         -0.02500000	         -0.16748251	          0.00000000	          0.00000000	          0.00000000	          0.00000000	         -4.54863861	          0.00000000	
          1.02000000	          0.00000000	          0.00000000	          0.00000000	          0.00000000	          0.00000000	          0.00000000	         25.70772348	        499.41121195	         32.37717368	         -0.03998799	         -0.02500000	         -0.16753121	          0.00000000	          0.00000000	          0.00000000	          0.00000000	         -4.58876776	          0.00000000	
          1.02400000	          0.00000000	          0.00000000	          0.00000000	          0.00000000	          0.00000000	          0.00000000	         27.92124511	        511.02030265	         34.71130396	         -0.03727429	         -0.02500076	         -0.16747070	          0.00000000	          0.00000000	          0.00000000	          0.00000000	         -4.60191588	          0.00000000	
          1.02800000	          0.00000000	          0.00000000	          0.00000000	          0.00000000	          0.00000000	          0.00000000	         30.53380144	        524.27763033	         37.32224477	         -0.03473824	         -0.02500100	         -0.16732674	          0.00000000	          0.00000000	          0.00000000	          0.00000000	         -4.58798999	          0.00000000	
          1.03200000	          0.00000000	          0.00000000	          0.00000000	          0.00000000	          0.00000000	          0.00000000	         33.53161021	        539.16257819	         40.17559832	         -0.03243274	         -0.02500145	         -0.16713657	          0.00000000	          0.00000000	          0.00000000	          0.00000000	         -4.55246787	          0.00000000	
          1.03600000	          0.00000000	          0.00000000	          0.00000000	          0.00000000	          0.00000000	          0.00000000	         36.84758317	        555.56650922	         43.16570772	         -0.03037921	         -0.02500188	         -0.16691657	          0.00000000	          0.00000000	          0.00000000	          0.00000000	         -4.50723974	          0.00000000	
          1.04000000	          0.00000000	          0.00000000	          0.00000000	          0.00000000	          0.00000000	          0.00000000	         40.40972567	        573.29774792	         46.09583694	         -0.02856727	         -0.02500200	         -0.16666247	          0.00000000	          0.00000000	          0.00000000	          0.00000000	         -4.46958265	          0.00000000	
          1.04400000	          0.00000000	          0.00000000	          0.00000000	          0.00000000	          0.00000000	          0.00000000	         44.18225202	        592.10868480	         48.68570066	         -0.02697830	         -0.02500256	         -0.16636775	          0.00000000	          0.00000000	          0.00000000	          0.00000000	         -4.45917719	          0.00000000	
